<?xml version="1.0" encoding="utf-8"?>
<!-- Generator: Adobe Illustrator 24.1.0, SVG Export Plug-In . SVG Version: 6.00 Build 0)  -->
<svg version="1.1" xmlns="http://www.w3.org/2000/svg" xmlns:xlink="http://www.w3.org/1999/xlink" x="0px" y="0px"
	 viewBox="0 0 560 288" style="enable-background:new 0 0 560 288;" xml:space="preserve">
<style type="text/css">
	.st0{fill:url(#SVGID_1_);stroke:#000000;stroke-width:3;stroke-miterlimit:10;}
	.st1{fill:url(#SVGID_2_);stroke:#000000;stroke-width:3;stroke-miterlimit:10;}
	.st2{fill:#83963C;stroke:#000000;stroke-width:3;stroke-miterlimit:10;}
	.st3{fill:url(#SVGID_3_);stroke:#000000;stroke-width:3;stroke-miterlimit:10;}
	.st4{fill:#1D1D1D;}
	.st5{fill:none;stroke:#000000;stroke-width:3;stroke-miterlimit:10;}
	.st6{fill:url(#SVGID_4_);stroke:#000000;stroke-width:3;stroke-miterlimit:10;}
	.st7{fill:url(#SVGID_5_);stroke:#000000;stroke-width:3;stroke-miterlimit:10;}
	.st8{fill:url(#SVGID_6_);stroke:#000000;stroke-width:3;stroke-miterlimit:10;}
	.st9{fill:none;stroke:#000000;stroke-width:2;stroke-miterlimit:10;}
	.st10{fill:none;stroke:#000000;stroke-miterlimit:10;}
	.st11{stroke:#000000;stroke-miterlimit:10;}
	.st12{fill:#FFFFFF;}
</style>
<g id="Capa_5">
	<linearGradient id="SVGID_1_" gradientUnits="userSpaceOnUse" x1="351.729" y1="66.4367" x2="351.729" y2="42.3826">
		<stop  offset="0" style="stop-color:#E2B071"/>
		<stop  offset="0.224" style="stop-color:#DBB370"/>
		<stop  offset="0.5428" style="stop-color:#C9BC6F"/>
		<stop  offset="0.6457" style="stop-color:#C1C06E"/>
		<stop  offset="0.8744" style="stop-color:#83963C"/>
	</linearGradient>
	<path class="st0" d="M342.06,57.96c1.23-2.68,1.85-4.02,2.28-5.89c0.79-3.49,0.16-4.89,1.47-6.43c1.28-1.49,3.68-2.28,4.82-1.47
		c1.54,1.1,0.1,4.68,1.07,5.09c1.21,0.52,3.26-5.22,8.3-6.56c0.4-0.11,3.29-0.88,4.55,0.54c1.38,1.55-0.05,4.76-0.4,5.49
		c-1.93,4.04-4.94,3.64-9.91,7.77c-4.93,4.1-4.83,6.87-9.51,8.84c-2.3,0.97-5.54,1.65-6.3,0.54
		C337.78,64.87,339.6,63.29,342.06,57.96z"/>
	<linearGradient id="SVGID_2_" gradientUnits="userSpaceOnUse" x1="252.9273" y1="185.7049" x2="233.8272" y2="166.6048">
		<stop  offset="0.0251" style="stop-color:#E2B071"/>
		<stop  offset="0.1654" style="stop-color:#DBB370"/>
		<stop  offset="0.3651" style="stop-color:#C9BC6F"/>
		<stop  offset="0.4296" style="stop-color:#C1C06E"/>
		<stop  offset="0.4321" style="stop-color:#BFBE6C"/>
		<stop  offset="0.4587" style="stop-color:#A9B05A"/>
		<stop  offset="0.4898" style="stop-color:#98A44D"/>
		<stop  offset="0.5283" style="stop-color:#8C9C43"/>
		<stop  offset="0.5817" style="stop-color:#85973E"/>
		<stop  offset="0.7236" style="stop-color:#83963C"/>
	</linearGradient>
	<path class="st1" d="M249.79,181.27c-2.39-0.19-3.58-0.28-5.13-0.08c-2.88,0.38-3.77,1.25-5.31,0.69
		c-1.49-0.55-2.77-2.16-2.48-3.26c0.4-1.48,3.53-1.39,3.57-2.25c0.05-1.07-4.89-1.02-7.33-4.48c-0.19-0.27-1.59-2.26-0.87-3.62
		c0.79-1.48,3.63-1.3,4.29-1.24c3.61,0.33,4.16,2.74,8.7,5.36c4.5,2.6,6.59,1.75,9.4,4.75c1.38,1.48,2.82,3.76,2.18,4.64
		C256.26,182.58,254.54,181.64,249.79,181.27z"/>
	<path class="st2" d="M318.42,178.57c0.27-0.73,0.75-1.41,11.45-6.03c2-0.86,2.78-1.18,3.21-0.8c1.46,1.26-3.11,8.42-5.42,11.65
		c-3.13,4.36-4.24,4.43-4.62,4.42C320.26,187.73,317.07,182.15,318.42,178.57z"/>
	<path class="st2" d="M332.23,199.19c-0.76,2.01,0.73,5.15,3.1,6.28c2.37,1.12,4.85-0.12,6.19-0.79c3.13-1.56,6.45-5.13,5.63-7.03
		C345.84,194.64,333.83,194.96,332.23,199.19z"/>
	<path class="st2" d="M238.46,213.13c-0.35-5.17-7.98-9.22-10.25-7.63c-1.84,1.28-0.8,6.72,1.81,10.05
		c0.64,0.82,3.01,3.84,5.42,3.21C237.5,218.22,238.61,215.3,238.46,213.13z"/>
</g>
<g id="Capa_2">
	<linearGradient id="SVGID_3_" gradientUnits="userSpaceOnUse" x1="289.4175" y1="264.7259" x2="289.4175" y2="17.8259">
		<stop  offset="0" style="stop-color:#E2B071"/>
		<stop  offset="0.271" style="stop-color:#DBB370"/>
		<stop  offset="0.6568" style="stop-color:#C9BC6F"/>
		<stop  offset="0.7814" style="stop-color:#C1C06E"/>
		<stop  offset="0.9146" style="stop-color:#83963C"/>
	</linearGradient>
	<path class="st3" d="M219.98,89.71l6.03,32.55c0,0,2.41,27.48,11.65,36.44s20.86,15.16,20.86,15.16l-3.01,4.05
		c0,0-11.62,15.57-14.83,22s-11.65,33.25-11.65,33.25s1.71,10.35,11.35,11.05c9.64,0.7,14.77-2.91,14.77-2.91l4.42-24.11l-0.8,33.65
		l-0.5,10.85c0,0,0.6,2.31,4.02,2.81c3.42,0.5,17.08,0,17.08,0s3.52,0.4,5.32-2.71c1.81-3.11,3.11-21.8,3.11-21.8l2.41,21.4
		c0,0,0.5,1.81,1.61,2.61c1.11,0.8,18.08,0.9,20.79-0.6c2.71-1.51,3.32-4.92,3.62-6.73s-2.21-42.49-2.21-42.49
		s3.81,23.82,6.93,27.12c3.62,3.82,7.13,5.42,13.86,3.42c6.73-2.01,9.04-5.93,10.25-8.84c1.18-2.84-4.92-20.69-4.92-20.69
		l-12.96-26.22l-9.44-15.37c0,0,9.54-4.52,16.07-9.54c6.53-5.02,9.74-10.05,11.51-18.22c5.53-20.36,5.66-33.62,8.88-42.46
		c3.21-8.84,8.64-17.48,0-32.35c-4.52-8.54-11.45-3.01-11.45-3.01l-5.77-27.09c0,0-6.19-7.56-21.35-9.17
		c-22.3,0.1-25.82,16.81-25.82,16.81l-5.12-30.57c0,0-11.45-1-22.1,2.01c-10.65,3.01-15.07,5.83-15.07,5.83l-6.03,33.35l-8.04-9.04
		l-11.65,17.68L219.98,89.71z"/>
</g>
<g id="Capa_3">
	<g>
		<g>
			<g>
				<polygon class="st4" points="229.26,54.31 232.36,53.95 233.54,64.49 233.76,66.39 233.47,78.94 230.64,66.34 230.47,64.84 				
					"/>
			</g>
		</g>
	</g>
	<g>
		<g>
			<g>
				<polygon class="st4" points="268.22,263.51 266.97,263.49 267.02,260.3 267.04,259.53 267.8,254.57 268.27,259.71 
					268.26,260.32 				"/>
			</g>
		</g>
	</g>
	<g>
		<g>
			<g>
				<polygon class="st4" points="260.26,223.42 260.32,222.18 266.16,222.5 266.93,222.54 271.86,223.49 266.7,223.77 266.1,223.73 
									"/>
			</g>
		</g>
	</g>
	<g>
		<g>
			<g>
				<polygon class="st4" points="241.4,244.18 240.16,244.29 239.61,238.47 239.53,237.71 239.74,232.69 240.78,237.75 
					240.84,238.36 				"/>
			</g>
		</g>
	</g>
	<g>
		<g>
			<g>
				<polygon class="st4" points="251.74,242.3 250.49,242.32 250.47,240.42 250.46,239.65 251.08,234.67 251.71,239.8 251.71,240.4 
									"/>
			</g>
		</g>
	</g>
	<g>
		<g>
			<g>
				<path class="st4" d="M275.79,215.44l0.26-1.22l2.91,0.63l0.75,0.16c1.57,0.56,3.12,1.25,4.67,1.86
					c-1.71-0.23-3.39-0.53-5.11-0.69l-0.59-0.13L275.79,215.44z"/>
			</g>
		</g>
	</g>
	<g>
		<g>
			<g>
				<path class="st4" d="M300.61,206.9l0.21,1.23c-0.57,0.09-1.13,0.17-1.69,0.24l-0.77,0.09c-1.69-0.05-3.45-0.2-4.99-0.8
					c1.69,0.19,3.37-0.08,5.02-0.45l0.59-0.07C299.52,207.07,300.07,206.99,300.61,206.9z"/>
			</g>
		</g>
	</g>
	<g>
		<g>
			<g>
				<path class="st4" d="M300.85,211.17l-0.09,1.24c-2.55-0.19-5.06-0.3-7.66-0.56l-0.77-0.09c-1.64-0.43-3.24-0.93-4.81-1.52
					c1.71,0.19,3.42,0.29,5.12,0.31l0.59,0.07C295.72,210.86,298.32,210.98,300.85,211.17z"/>
			</g>
		</g>
	</g>
	<g>
		<g>
			<g>
				<polygon class="st4" points="276.9,263.62 275.66,263.79 275.3,261.09 275.19,260.33 275.19,255.31 276.44,260.32 
					276.52,260.92 				"/>
			</g>
		</g>
	</g>
	<g>
		<g>
			<g>
				<path class="st4" d="M258.98,234.2l0.76-0.99c1.18,0.94,2.24,1.95,3.23,3.06l0.52,0.6c0.91,1.46,1.67,3.04,1.96,4.68
					c-0.71-1.56-1.81-2.85-3.02-4l-0.38-0.44C261.11,236.05,260.07,235.06,258.98,234.2z"/>
			</g>
		</g>
	</g>
	<g>
		<g>
			<g>
				<path class="st4" d="M297.66,229.7l-0.45-1.16c1.07-0.45,2.16-1.11,3.06-1.88c0.93-0.78,1.59-1.72,2.16-2.83
					c0.11-0.22,0.23-0.44,0.33-0.67c0.9-1.36,1.69-2.83,2.39-4.36c-0.33,1.7-0.75,3.38-1.35,5.04l-0.28,0.56
					c-0.31,0.58-0.62,1.15-1.04,1.72c-0.42,0.55-0.89,1.04-1.4,1.48C300.05,228.47,298.93,229.16,297.66,229.7z"/>
			</g>
		</g>
	</g>
	<g>
		<g>
			<g>
				<path class="st4" d="M310.21,231.85l1.23,0.2l-0.97,6.05l-0.12,0.76c-0.02,0.04-0.02,0.1-0.06,0.21l-0.06,0.15l-0.12,0.29
					l-0.25,0.58l-0.5,1.15l-1,2.3l0.42-2.55l0.21-1.27l0.11-0.64l0.05-0.32c-0.01,0.01-0.01-0.03,0-0.09l0.01-0.16l0.1-0.6
					L310.21,231.85z"/>
			</g>
		</g>
	</g>
	<g>
		<g>
			<g>
				<polygon class="st4" points="332.16,244.89 330.93,245.11 329.8,238.74 329.67,237.99 329.47,232.97 330.92,237.93 
					331.02,238.52 				"/>
			</g>
		</g>
	</g>
	<g>
		<g>
			<g>
				<polygon class="st4" points="239.74,56.99 242.8,56.43 245.56,71.56 245.91,73.45 246.46,85.98 242.79,73.6 242.51,72.12 				
					"/>
			</g>
		</g>
	</g>
	<g>
		<g>
			<g>
				<polygon class="st4" points="265.13,17.81 268.24,17.84 268.07,33.45 268.05,35.36 266.21,47.78 264.96,34.93 264.97,33.41 				
					"/>
			</g>
		</g>
	</g>
	<g>
		<g>
			<g>
				<polygon class="st4" points="271.07,18.5 274.18,18.36 276.52,69.46 275.38,81.96 273.41,69.2 				"/>
			</g>
		</g>
	</g>
	<g>
		<g>
			<g>
				<polygon class="st4" points="316.71,31.89 319.79,32.31 315.28,64.92 315.02,66.82 311.62,78.9 312,65.99 				"/>
			</g>
		</g>
	</g>
	<g>
		<g>
			<g>
				<polygon class="st4" points="336.34,38.31 338.68,40.37 332.26,47.66 330.99,49.1 321.51,57.31 328.93,46.75 329.93,45.61 				
					"/>
			</g>
		</g>
	</g>
	<g>
		<g>
			<g>
				<path class="st4" d="M273.72,71.11l1.99-2.39c2.77,2.32,5.07,5.2,6.69,8.44c0.31,0.6,0.59,1.22,0.85,1.85
					c1.16,4.29,1.15,8.71,0.17,12.75c-0.03-4.28-1.17-8.42-3.18-11.92c-0.2-0.43-0.38-0.86-0.6-1.28
					C278.21,75.71,276.17,73.16,273.72,71.11z"/>
			</g>
		</g>
	</g>
	<g>
		<g>
			<g>
				<path class="st4" d="M351.85,69.46l2.46-0.39c0.14,0.99,0.03,1.84-0.12,2.65c-0.15,0.81-0.37,1.58-0.63,2.33
					c-0.52,1.49-1.14,2.94-2,4.32c-0.29,0.47-0.62,0.94-0.97,1.38c-0.66,0.63-1.24,1.1-1.8,1.69c-0.6,0.61-1,1.06-1.33,1.82
					c-0.63,1.49-1.21,3.14-2.08,4.55c0.24-0.82,0.42-1.65,0.56-2.48c0.14-0.84,0.2-1.68,0.39-2.58c0.09-0.45,0.23-0.93,0.45-1.39
					c0.23-0.47,0.43-0.81,0.67-1.21c0.46-0.78,1.02-1.52,1.4-2.17c0.22-0.29,0.42-0.58,0.61-0.9c0.72-1.16,1.3-2.48,1.75-3.81
					C351.64,71.96,351.98,70.49,351.85,69.46z"/>
			</g>
		</g>
	</g>
	<g>
		<g>
			<g>
				<path class="st4" d="M357.7,78.31l1.94,2.43c-1.71,1.37-3.25,2.95-4.45,4.73c-1.22,1.79-2.04,3.72-2.58,5.89l-0.45,1.83
					c-0.76,1.96-1.57,3.93-2.46,5.84c-0.88,1.91-1.9,3.76-2.84,5.61c0.47-2.1,1.04-4.16,1.42-6.26c0.4-2.1,0.69-4.18,0.96-6.32
					l0.37-1.5c0.3-1.16,0.68-2.38,1.19-3.54c0.51-1.16,1.12-2.26,1.82-3.3C354.03,81.64,355.78,79.84,357.7,78.31z"/>
			</g>
		</g>
	</g>
	<path class="st5" d="M258.53,173.86c0,0,13.08,3.97,29.29,3.97c15.27,0,30.7-4.63,30.7-4.63"/>
	<linearGradient id="SVGID_4_" gradientUnits="userSpaceOnUse" x1="264.5057" y1="218.5456" x2="264.5057" y2="176.2675">
		<stop  offset="0" style="stop-color:#E2B071"/>
		<stop  offset="0.271" style="stop-color:#DBB370"/>
		<stop  offset="0.6568" style="stop-color:#C9BC6F"/>
		<stop  offset="0.7814" style="stop-color:#C1C06E"/>
		<stop  offset="0.9146" style="stop-color:#83963C"/>
	</linearGradient>
	<line class="st6" x1="259.53" y1="218.55" x2="269.48" y2="176.27"/>
	<linearGradient id="SVGID_5_" gradientUnits="userSpaceOnUse" x1="254.2711" y1="196.7579" x2="254.2711" y2="190.6958">
		<stop  offset="0" style="stop-color:#E2B071"/>
		<stop  offset="0.271" style="stop-color:#DBB370"/>
		<stop  offset="0.6568" style="stop-color:#C9BC6F"/>
		<stop  offset="0.7814" style="stop-color:#C1C06E"/>
		<stop  offset="0.9146" style="stop-color:#83963C"/>
	</linearGradient>
	<path class="st7" d="M242.46,196.76c0,0,7.75-0.51,13.48-2.22s10.15-3.85,10.15-3.85"/>
	<linearGradient id="SVGID_6_" gradientUnits="userSpaceOnUse" x1="310.5421" y1="216.2808" x2="310.5421" y2="175.9369">
		<stop  offset="0" style="stop-color:#E2B071"/>
		<stop  offset="0.271" style="stop-color:#DBB370"/>
		<stop  offset="0.6568" style="stop-color:#C9BC6F"/>
		<stop  offset="0.7814" style="stop-color:#C1C06E"/>
		<stop  offset="0.9146" style="stop-color:#83963C"/>
	</linearGradient>
	<line class="st8" x1="314.36" y1="216.28" x2="306.72" y2="175.94"/>
	<path class="st9" d="M259.82,241.49c0.81,1.13,4.18,5.15,9.31,6.6c4.2,1.19,8.09,0.38,9.49-0.06c5.09-1.59,8.26-6.27,9.06-7.44"/>
	<path class="st9" d="M264.77,196.27c1.26,1.68,4.39,5.82,7.34,6.74c2.41,0.75,4.39,0,5.73-0.13c2.56-0.25,3.55-0.87,6.57-1.02
		c2.18-0.11,3.06-0.06,3.77-0.59c2.06-1.51,2.33-3.9,1.71-6.63c-0.5-2.21-1.73-3.94-1.61-5.58c1.05-3.21,2.46-5.6,6.78-11.23"/>
	<path class="st9" d="M281.49,177.64c1.08,0.68,3.55,2.18,4.99,3.95c1.37,1.68,2.34,3.81,2.79,4.98"/>
	<path class="st9" d="M310.43,199.31c-2.47,2.53-6.5,3.56-8.14,3.88c-2.52,0.49-2.4-0.37-7.99-1.12c-2.43-0.32-4.97-0.72-6.31-0.82"
		/>
	<path class="st9" d="M307.87,180.18c1.55,1,5.39,2.34,8.69,3.11c3.05,0.71,5.67,0.68,7.44,0.52"/>
	<path class="st9" d="M309.68,189.12c2.37,4.86,5.83,6.71,7.74,7.79c1.29,0.73,2.37,1.08,9.14,2.96c2.9,0.81,5.37,1.49,7.28,2.01"/>
	<path class="st9" d="M312.14,201.33c2.84,1.47,6.82,3.47,9.69,5.04c0.9,0.49,3.37,2.04,4.26,2.53"/>
	<path class="st9" d="M323.52,199.01c0.62,1.55,1.55,4.37,2.09,7.03c0.28,1.42,1.06,5.29,0.65,8.79c-0.8,6.78-6.48,11.84-8.64,13.56
		"/>
	<g>
		<g>
			<g>
				<path class="st4" d="M328.15,200.74l1.12-0.55c1.24,2.54,2.32,5.14,3.18,7.83c0.43,1.35,0.78,2.74,1.05,4.12
					c0.13,0.7,0.25,1.39,0.35,2.09l0.14,1.03l0.08,0.72c-0.04,1.69-0.16,3.36-0.3,5.03c-0.27-1.7-0.57-3.39-0.95-5.05l-0.09-0.74
					l-0.14-1.01c-0.1-0.67-0.21-1.34-0.35-2c-0.26-1.33-0.59-2.63-1.01-3.92C330.39,205.71,329.34,203.18,328.15,200.74z"/>
			</g>
		</g>
	</g>
	<g>
		<g>
			<g>
				<path class="st4" d="M309.42,189.3l0.52-1.13c0.5,0.23,1.01,0.47,1.51,0.72c0.5,0.25,1,0.56,1.45,0.79
					c0.91,0.47,1.95,0.85,2.96,1.27l0.72,0.29c0.73,0.42,1.48,0.85,2.16,1.38c0.68,0.52,1.29,1.09,1.91,1.65
					c-0.76-0.4-1.52-0.82-2.29-1.15c-0.77-0.33-1.57-0.56-2.4-0.79l-0.56-0.22c-1.01-0.41-2.04-0.79-3.08-1.32
					C311.32,190.21,310.44,189.76,309.42,189.3z"/>
			</g>
		</g>
	</g>
	<path class="st10" d="M341.22,240.75c-0.56-2.13-1.08-5.05-1-8.54c0.1-4.46,1.14-8.05,2.03-10.39"/>
	<path class="st10" d="M253.02,195.95c-0.53,2.67-1.07,6.69-0.7,11.55c0.17,2.3,0.48,3.91,1.71,9.95c0.94,4.65,1.79,8.78,2.51,12.26
		"/>
	<path class="st10" d="M249.81,196.85c-1.12,4.29-1.9,7.78-2.41,10.15c-1.76,8.22-1.46,9.02-2.81,12.05
		c-0.54,1.2-1.11,2.26-1.21,3.92c-0.16,2.85,1.32,3.53,1.81,6.53c0.47,2.86-0.66,3.58-1.1,8.34c-0.24,2.56-0.13,4.67,0,6.03"/>
	<path class="st10" d="M238.81,204.99c0.81,1.53,2.36,4.93,2.76,7.08c0.83,4.44,1.57,6.99,1.99,9.63"/>
	<path class="st9" d="M289.33,243.06c1.03,0.37,5.12,0.91,7.49,4.77c2.32,3.77,2.13,7,1.98,8.22c-0.59,4.76-3.51,7.62-4.32,8.36"/>
	<path class="st9" d="M315.14,243.06c-1.05,1.41-3.83,4.13-6.59,5.03c-4.27,1.39-5.98-0.12-8.14,1.53c-2.63,2.02-2.11,6.91,0,10.85
		c0.74,1.37,1.6,2.39,2.28,3.08"/>
	<path class="st9" d="M259.36,225.78c4.31,2.95,8.08,4.15,10.78,4.69c3.51,0.71,4.45,0.15,7.37,1.34c2.73,1.11,6.17,2.51,8.04,5.63
		c0.36,0.59,0.64,1.23,1.34,1.47c1.43,0.51,2.83-1.23,5.36-2.68c1.52-0.87,1.58-0.56,5.89-2.01c6.36-2.13,6.48-2.88,8.71-3.08
		c1.85-0.17,4.67,0.08,8.32,2.39"/>
	<path class="st9" d="M272.11,248.34c-0.17-0.84-0.41-3.73-0.1-5.14c0.45-2.06,1.53-2.93,2.14-4.29c0.63-1.41,0.91-3.67-0.8-7.37"/>
	<path class="st9" d="M308.04,230.2c0.07-2.01,0.54-4.28,0.8-6.83c0.74-7.09,2.92-8.24,4.15-10.82"/>
	<path class="st9" d="M260.96,219.76c2.8-0.26,6.19-0.54,10.05-0.8c4.04-0.27,5.96-0.34,8.24,0.6c1.2,0.5,3.9,1.62,4.42,3.82
		c0.57,2.43-2.18,6.62-6.16,8.44"/>
	<path class="st9" d="M298.4,233.08c0.01-0.94-0.07-4.21-2.48-6.76c-2.79-2.97-7.58-3.77-11.92-1.88"/>
	<path class="st9" d="M302.3,203.19c-1.08,0.66-1.99,2.51-2.29,4.11c-0.29,1.56,0.56,2.84,0.87,3.48c0.94,1.95,0.49,5.71-6.03,13.66
		"/>
	<path class="st9" d="M275.49,203.75c-0.08,1-0.11,2.47,0.2,4.22c0.25,1.38,0.16,3,0.33,3.68c0.38,1.49,0.76,3.51-1.14,6.89"/>
	<path class="st9" d="M263.1,206.9c1.49,1.3,2.79,2.31,3.75,3.01c2.64,1.94,3.49,2.22,3.95,2.34c1.75,0.46,3.37,0.12,4.49-0.27"/>
</g>
<g id="Capa_4">
	<g>
		<g>
			<circle class="st11" cx="255.29" cy="127.09" r="16.52"/>
			<circle class="st12" cx="250.28" cy="122.83" r="5.36"/>
			<circle class="st12" cx="258.52" cy="135.91" r="2.87"/>
		</g>
		<g>
			<circle class="st11" cx="324" cy="128.19" r="16.52"/>
			<circle class="st12" cx="318.99" cy="123.93" r="5.36"/>
			<circle class="st12" cx="327.23" cy="137.02" r="2.87"/>
		</g>
		<path class="st11" d="M279.64,155.67c1.81,0.36,4.1,0.65,6.73,0.6c3.16-0.05,5.83-0.56,7.84-1.11"/>
	</g>
</g>
</svg>
