<?xml version="1.0" encoding="utf-8"?>
<!-- Generator: Adobe Illustrator 24.1.0, SVG Export Plug-In . SVG Version: 6.00 Build 0)  -->
<svg version="1.1" xmlns="http://www.w3.org/2000/svg" xmlns:xlink="http://www.w3.org/1999/xlink" x="0px" y="0px"
	 viewBox="0 0 560 288" style="enable-background:new 0 0 560 288;" xml:space="preserve">
<style type="text/css">
	.st0{fill:#CCCCCC;}
	.st1{fill:#EFD6A9;}
	.st2{fill:#C69740;}
	.st3{fill:#D2BE8D;}
	.st4{opacity:0.35;fill:none;stroke:#7F4E00;stroke-width:0.25;stroke-miterlimit:10;}
	.st5{fill:#DDBF86;}
	.st6{fill:#ECD7AA;}
	.st7{fill:#FEF9DF;}
	.st8{fill:url(#SVGID_1_);}
	.st9{fill:url(#SVGID_2_);}
	.st10{fill:#3B150D;}
	.st11{fill:#B49E94;}
	.st12{fill:#E7C18B;}
	.st13{fill:#D6B986;}
	.st14{fill:url(#SVGID_3_);}
	.st15{fill:url(#SVGID_4_);}
	.st16{opacity:0.22;fill:none;stroke:#000000;stroke-width:0.5;stroke-miterlimit:10;}
	.st17{fill:url(#SVGID_5_);}
	.st18{fill:#946B37;}
	.st19{opacity:0.32;fill:#DDBF86;}
	.st20{opacity:0.25;fill:#DDBF86;}
	.st21{opacity:0.32;}
	.st22{fill:#C2B593;}
	.st23{fill:#EDD7A6;}
	.st24{fill:#F0E7E1;}
	.st25{fill:#E6E5E4;}
	.st26{fill:#CA4B32;stroke:#944B32;stroke-miterlimit:10;}
	.st27{fill:#EAEBE5;}
	.st28{fill:#4D5D76;}
	.st29{fill:#7D8A9B;}
	.st30{fill:#ABAFA1;}
	.st31{fill:#E7E8E2;}
	.st32{opacity:0.36;fill:none;stroke:#110041;stroke-width:0.25;stroke-miterlimit:10;}
</style>
<g id="Capa_1">
</g>
<g id="Capa_9">
	<ellipse class="st0" cx="216.46" cy="262.57" rx="54.75" ry="17.68"/>
</g>
<g id="Cuello">
	<path class="st1" d="M203.79,84.87c0,0,3-0.13,4.93-1.9c2.39-2.19,2.46-7.27,0.34-10.43c-1.43-2.12-3.1-2.26-2.99-3.15
		c0.29-2.44,13.02-4.37,14.79-0.88c0.55,1.09-0.45,1.75-1.13,5.38c-0.54,2.9-1.27,6.85,0.64,8.84c1.83,1.9,6.13,2.99,6.13,2.99
		s0.65,3.66-0.18,5.28c-2.13,4.16-8.65,5.78-13.66,4.26C206.66,93.45,203.79,84.87,203.79,84.87z"/>
</g>
<g id="Cara">
	<path class="st2" d="M202.64,71.1c-0.12,0.31-4.32-0.66-7.93-2.36c-5.89-2.78-9.28-7.05-11.2-9.54c-3.06-3.97-6.54-8.45-6.48-13.13
		c0-0.38,0.06-3.3-0.83-3.54c-0.34-0.09-0.56,0.27-1.55,0.62c-0.39,0.14-1.15,0.4-1.9,0.32c-1.3-0.13-2.57-1.25-2.41-1.82
		c0.17-0.6,1.79-0.07,3.59-0.99c1.24-0.63,1.95-1.63,2.57-2.65c1.7-2.77,2.56-4.16,3.91-8.54c1.92-6.23,7.34-10.09,9.86-11.89
		c2.53-1.81,8.91-6.37,16.29-5.46c2,0.25,5.12,1.02,5.46,0.21c0.22-0.51-0.9-1.13-1.93-3c-1.09-2-1.46-4.3-1.04-4.5
		c0.36-0.17,1.05,1.34,2.65,2.89c2.79,2.71,7.19,4.39,8.52,3.13c0.87-0.83,0.3-2.8,0.16-3.29c-0.65-2.26-2.4-3.27-2.25-3.46
		c0.21-0.26,4.1,1.07,5.71,4.42c0.87,1.8,0.59,3.18,1.77,3.86c1.2,0.69,2.81,0,3.38-0.24c2.75-1.17,3.61-3.84,4.1-3.62
		c0.39,0.18,0.24,2.09-0.8,3.62c-0.99,1.45-2.15,1.64-2.09,2.17c0.11,0.99,4.12,0.19,7.45,2.09c3.65,2.08,4.98,6.53,5.68,8.89
		c1.06,3.56,0.29,4.52,1.82,9.11c1.2,3.6,2.22,4.66,3.21,5.25c1.96,1.15,4.03,0.57,4.18,1.29c0.13,0.63-1.34,1.83-2.84,1.88
		c-1.38,0.05-2.1-0.89-2.73-0.54c-0.78,0.44-0.48,2.33-0.43,2.73c0.72,5.22-4.87,13.02-7.61,16.18c-4.69,5.42-10.09,7.73-10.18,7.61
		c-0.08-0.11,3.73-2.43,7.59-7.11c1.38-1.68,2.14-2.49,2.77-3.82c1.8-3.79,1.47-8.03,1.15-8.87c-0.02-0.05-0.1-0.24-0.08-0.48
		c0.04-0.63,0.65-1.02,0.94-1.29c0.76-0.69,0.77-1.83,0.78-3.43c0-0.49-0.03-2.07-0.83-3.83c-1.76-3.85-5.84-5.54-6.05-5.28
		c-0.1,0.13,0.69,0.73,2.14,2.73c1.04,1.44,1.9,2.62,1.61,2.97c-0.34,0.41-2.11-0.43-3.21-1.1c-1.05-0.64-3.87-2.35-5.12-5.68
		c-1.42-3.78,0.25-6.79-1.04-7.46c-0.35-0.18-0.78-0.11-3.09,1.21c-3.95,2.24-4.93,3.29-7.35,4.06c-1.83,0.58-3.36,0.64-3.42,0.44
		c-0.04-0.14,0.71-0.31,1.17-1.04c0.45-0.72,0.49-1.8,0.08-2.05c-0.32-0.19-0.76,0.2-2.05,0.92c-0.2,0.11-1.47,0.83-2.45,1.21
		c-1.89,0.73-3.9,0.68-3.98,0.36c-0.05-0.22,0.79-0.39,1.81-1.33c0.87-0.81,1.61-1.94,1.41-2.17c-0.22-0.24-1.31,0.68-3.66,1.81
		c-0.51,0.24-2.11,0.99-4.1,1.57c-1.89,0.55-4.46,1.04-4.58,0.68c-0.1-0.29,1.59-0.84,3.62-2.21c3.22-2.18,5.78-5.39,5.3-6.03
		c-0.15-0.2-0.68-0.23-3.9,1.21c-5.03,2.24-7.55,3.36-10.13,5.46c-2.17,1.77-5.29,4.32-6.99,8.56c-2.36,5.88-0.58,11.56-1.41,11.71
		c-0.83,0.14-2.32-5.62-3-5.46c-0.42,0.1-0.23,2.43-0.21,2.63c0.63,7.31,4.82,12.48,4.82,12.48c3.95,4.88,9.8,7.88,12.98,9.51
		C201.23,70.18,202.72,70.9,202.64,71.1z"/>
	<ellipse class="st3" cx="244.55" cy="53.46" rx="4.99" ry="6.27"/>
	<path class="st4" d="M239.05,54.39c-0.28-1.28,1.04-2.46,1.49-2.85c1.17-1.04,2.46-1.2,2.85-1.25c0.76-0.09,1.5-0.17,2.13,0.28
		c1.2,0.86,0.87,2.74,0.84,2.89c-0.31,1.64-1.73,2.43-2.01,2.57c-1.49,0.78-3.31,0.51-4.42-0.4
		C239.65,55.41,239.18,55.02,239.05,54.39z"/>
	<path class="st5" d="M190.34,53.23c0,3.69-3,6.69-6.69,6.69s-6.69-3-6.69-6.69c0-3.69,2.84-6.69,6.54-6.69
		c0.42,0,1.17,4.03,2.16,3.94c0.59-0.05-0.12-3.68,0.2-3.57C188.46,47.82,190.34,50.31,190.34,53.23z"/>
	<path class="st4" d="M186.09,51.07c-1.56-1.63-4.09-0.84-4.46-0.72c-0.56,0.17-2.11,0.66-2.45,1.89c-0.43,1.54,1.34,3.24,2.73,3.9
		c1,0.47,1.92,0.46,2.25,0.44c0.55-0.03,1.52-0.08,2.17-0.68C187.45,54.86,187.39,52.43,186.09,51.07z"/>
	<path class="st6" d="M236.32,61.64c1.38-1.68,2.14-2.49,2.77-3.82c1.8-3.79,1.47-8.03,1.15-8.87c-0.02-0.05-0.1-0.24-0.08-0.48
		c0.04-0.63,0.65-1.02,0.94-1.29c0.76-0.69,0.77-1.83,0.78-3.43c0-0.49-0.03-2.07-0.83-3.83c-1.76-3.85-5.84-5.54-6.05-5.28
		c-0.1,0.13,0.69,0.73,2.14,2.73c1.04,1.44,1.9,2.62,1.61,2.97c-0.34,0.41-2.11-0.43-3.21-1.1c-1.05-0.64-3.87-2.35-5.12-5.68
		c-1.42-3.78,0.25-6.79-1.04-7.46c-0.35-0.18-0.78-0.11-3.09,1.21c-3.95,2.24-4.93,3.29-7.35,4.06c-1.83,0.58-3.36,0.64-3.42,0.44
		c-0.04-0.14,0.71-0.31,1.17-1.04c0.45-0.72,0.49-1.8,0.08-2.05c-0.32-0.19-0.76,0.2-2.05,0.92c-0.2,0.11-1.47,0.83-2.45,1.21
		c-1.89,0.73-3.9,0.68-3.98,0.36c-0.05-0.22,0.79-0.39,1.81-1.33c0.87-0.81,1.61-1.94,1.41-2.17c-0.22-0.24-1.31,0.68-3.66,1.81
		c-0.51,0.24-2.11,0.99-4.1,1.57c-1.89,0.55-4.46,1.04-4.58,0.68c-0.1-0.29,1.59-0.84,3.62-2.21c3.22-2.18,5.78-5.39,5.3-6.03
		c-0.15-0.2-0.68-0.23-3.9,1.21c-5.03,2.24-7.55,3.36-10.13,5.46c-2.17,1.77-5.29,4.32-6.99,8.56c-2.36,5.88-0.58,11.56-1.41,11.71
		c-0.83,0.14-2.32-5.62-3-5.46c-0.42,0.1-0.23,2.43-0.21,2.63c0.63,7.31,4.82,12.48,4.82,12.48c3.95,4.88,9.8,7.88,12.98,9.51
		c0.99,0.51,2.47,1.22,2.4,1.42c-0.04,0.11-0.59,0.06-1.44-0.12c3.44,1.13,7.17,1.76,11.07,1.76c6.26,0,12.07-1.6,16.93-4.33
		C230.32,67.52,233.3,65.3,236.32,61.64z"/>
	<path class="st7" d="M219.81,49.54c1.61,1.16,2.39,0.81,4.69,0.99c2.75,0.22,5.3,0.13,6.91-1.13c0.26-1.55-1.31-6.69-5.04-7.77
		c-0.4-0.11-3.13-0.86-5.2,0.86C219.18,44.15,219.38,48.35,219.81,49.54z"/>
	<path class="st7" d="M194.04,49.95c1.91,0.38,2.95,0.43,7.21,0.38c3.8-0.05,2.97,0.07,4.55-0.7c1.03-1.77,0.77-6.29-1.82-7.71
		c-3-1.65-7.11,1.6-8.79,4.18C194.68,46.87,194.28,47.54,194.04,49.95z"/>
	<linearGradient id="SVGID_1_" gradientUnits="userSpaceOnUse" x1="201.2461" y1="50.3966" x2="201.2461" y2="42.0313">
		<stop  offset="0" style="stop-color:#5A3321"/>
		<stop  offset="0.309" style="stop-color:#56301E"/>
		<stop  offset="0.6274" style="stop-color:#492717"/>
		<stop  offset="0.9493" style="stop-color:#35190A"/>
		<stop  offset="1" style="stop-color:#311608"/>
	</linearGradient>
	<ellipse class="st8" cx="201.25" cy="46.21" rx="3.59" ry="4.18"/>
	<linearGradient id="SVGID_2_" gradientUnits="userSpaceOnUse" x1="224.8299" y1="50.6184" x2="224.8299" y2="41.3958">
		<stop  offset="0" style="stop-color:#5A3321"/>
		<stop  offset="0.309" style="stop-color:#56301E"/>
		<stop  offset="0.6274" style="stop-color:#492717"/>
		<stop  offset="0.9493" style="stop-color:#35190A"/>
		<stop  offset="1" style="stop-color:#311608"/>
	</linearGradient>
	<ellipse class="st9" cx="224.83" cy="46.01" rx="3.99" ry="4.61"/>
	<ellipse class="st10" cx="201.14" cy="46.04" rx="1.45" ry="1.75"/>
	<ellipse class="st10" cx="224.82" cy="45.74" rx="1.55" ry="1.86"/>
	<ellipse class="st11" cx="202.52" cy="45.05" rx="0.95" ry="1.01"/>
	<ellipse class="st11" cx="223.32" cy="44.4" rx="0.89" ry="1.11"/>
	<path class="st12" d="M208.66,57.15c0.27,0.62,1.69,0.63,4.52,0.64c3.6,0.01,3.99-0.33,4.14-0.62c0.2-0.41-0.22-0.78-1.08-2.4
		c-1.05-1.99-1.48-2.28-1.71-2.41c-0.08-0.05-1.31-0.72-2.46-0.21c-0.61,0.27-0.81,0.7-1.66,2.14
		C208.82,56.97,208.49,56.76,208.66,57.15z"/>
	
		<ellipse transform="matrix(0.6532 -0.7572 0.7572 0.6532 30.2238 179.3455)" class="st13" cx="210.91" cy="56.68" rx="1.27" ry="0.48"/>
	
		<ellipse transform="matrix(0.7071 -0.7071 0.7071 0.7071 23.1113 168.9473)" class="st13" cx="215.49" cy="56.58" rx="0.48" ry="1.27"/>
	<radialGradient id="SVGID_3_" cx="198.6389" cy="56.5759" r="4.6716" gradientUnits="userSpaceOnUse">
		<stop  offset="0" style="stop-color:#E4BD88"/>
		<stop  offset="0.5857" style="stop-color:#E8CB9A"/>
		<stop  offset="1" style="stop-color:#ECD7AA"/>
	</radialGradient>
	<ellipse class="st14" cx="198.64" cy="56.58" rx="5.7" ry="3.35"/>
	<radialGradient id="SVGID_4_" cx="227.7551" cy="56.5759" r="4.6716" gradientUnits="userSpaceOnUse">
		<stop  offset="0" style="stop-color:#E4BD88"/>
		<stop  offset="0.9127" style="stop-color:#EBD5A7"/>
		<stop  offset="1" style="stop-color:#ECD7AA"/>
	</radialGradient>
	<ellipse class="st15" cx="227.76" cy="56.58" rx="5.7" ry="3.35"/>
	<path class="st16" d="M221.23,60.88c-1.87,0.44-4.29,0.82-7.13,0.8c-3.67-0.03-6.7-0.72-8.84-1.39"/>
	
		<radialGradient id="SVGID_5_" cx="217.4864" cy="65.2344" r="1.6719" gradientTransform="matrix(1.0701 0 0 1 -19.6992 0)" gradientUnits="userSpaceOnUse">
		<stop  offset="0" style="stop-color:#333333;stop-opacity:0.2"/>
		<stop  offset="0.1148" style="stop-color:#5B564D;stop-opacity:0.2918"/>
		<stop  offset="0.2617" style="stop-color:#877D69;stop-opacity:0.4093"/>
		<stop  offset="0.4103" style="stop-color:#AB9E80;stop-opacity:0.5282"/>
		<stop  offset="0.5585" style="stop-color:#C8B793;stop-opacity:0.6468"/>
		<stop  offset="0.7063" style="stop-color:#DCC9A0;stop-opacity:0.7651"/>
		<stop  offset="0.8537" style="stop-color:#E8D3A7;stop-opacity:0.8829"/>
		<stop  offset="1" style="stop-color:#ECD7AA"/>
	</radialGradient>
	<ellipse class="st17" cx="213.04" cy="65.23" rx="2.45" ry="0.58"/>
	<path class="st18" d="M218.3,35.34c0.22,0.68,0.89,0.94,0.96,0.96c0.01,0,0.03,0.01,0.05,0.02c0.19,0.06,0.68,0.11,2.1-0.44
		c1.07-0.42,1.06-0.59,1.61-0.74c1.06-0.3,2.02,0.04,2.71,0.28c1.11,0.39,1.95,1.02,3.27,2.01c0.92,0.69,1.33,1.08,1.49,0.96
		c0.25-0.18-0.28-1.39-0.8-2.23c-0.96-1.54-2.24-2.36-2.59-2.57c-0.68-0.41-2.76-1.55-5.24-1.13c-0.89,0.15-1.45,0.44-2.47,0.96
		c-0.48,0.25-0.86,0.48-1.04,0.92C218.15,34.83,218.28,35.27,218.3,35.34z"/>
	<path class="st18" d="M205.18,36.15c-0.37,0.37-0.88,0.41-1.25,0.44c-0.66,0.05-0.94-0.15-2.07-0.38c-0.47-0.1-0.88-0.18-1.25-0.2
		c-1.74-0.09-3.22,1.33-3.44,1.55c-0.88,0.87-1.02,1.6-2.21,2.29c-0.64,0.37-0.79,0.27-0.82,0.24c-0.31-0.25,0.34-1.6,0.92-2.49
		c0.8-1.21,1.72-1.91,2.67-2.63c1.43-1.08,2.54-1.55,2.83-1.67c0.97-0.4,1.53-0.62,2.31-0.56c0.17,0.01,2.04,0.19,2.55,1.53
		C205.66,34.81,205.67,35.65,205.18,36.15z"/>
</g>
<g id="Capa_8">
	<path class="st19" d="M190.1,24.69l-0.4,2.25l1.85,0.4c0,0-1.85,0.96-3.62,2.81s-3.05,3.94-3.05,3.94l1.37-5.38L190.1,24.69z"/>
	<polygon class="st20" points="233.97,28.87 235.9,28.87 236.94,26.38 241.12,34.09 237.19,31.36 233.97,29.39 	"/>
	<g class="st21">
		<g>
			<path class="st5" d="M184.9,40.18c-0.35,0.74-0.98,1.58-1.22,2.34c-0.39,0.32-0.15,0.37,0.73,0.15c0-0.01,0-0.01-0.01-0.02
				c0.02-0.02-0.07-0.2-0.07-0.25c0.08-0.41,0.05-0.8,0.17-1.23c0.49-1.8,1.5-3.54,2.62-5.02c-0.91-0.39-1.83-0.77-2.74-1.16
				c-0.26,1.68-0.86,3.23-1.47,4.8c-0.28,0.73-0.48,1.56-0.81,2.27c-0.2,0.42-0.62,0.98-0.82,1.51c-1.03,2.76,1.01,5.35,2.65,7.36
				c1.15,1.41,3.03-0.39,2.36-1.82c-3.02-6.47,1.05-13.62,5.74-18.06c-0.71-0.71-1.41-1.41-2.12-2.12c-1.4,1.81-2.39,3.8-3.41,5.83
				c-0.99,1.96-2.06,4-3.85,5.36c0.75,0.43,1.5,0.86,2.26,1.3c0.43-4.75,1.83-12,7.32-13.26c1.67-0.39,1.27-2.93-0.4-2.95
				c-3.71-0.05-4.88,4.14-6.2,6.84c0.93,0.25,1.86,0.5,2.8,0.76c-0.43-3.28,1.77-6.26,5.15-6.53c-0.43-0.75-0.86-1.5-1.3-2.26
				c-0.37,0.59-0.74,1.18-1.1,1.78c-0.73,1.18,0.47,2.46,1.69,2.2c0.4-0.08,0.81-0.17,1.21-0.25c-0.62-0.62-1.23-1.23-1.85-1.85
				c-0.17,0.58-0.4,1.04-0.74,1.54c-0.72,1.07,0.48,2.61,1.69,2.2c0.59-0.2,1.2-0.26,1.8-0.43c-0.56-0.73-1.13-1.47-1.69-2.2
				c-0.17,0.3-0.33,0.61-0.48,0.91c-0.88,1.71,1.7,3.23,2.59,1.51c0.16-0.31,0.32-0.61,0.48-0.91c0.62-1.13-0.41-2.56-1.69-2.2
				c-0.6,0.16-1.21,0.23-1.8,0.43c0.56,0.73,1.13,1.47,1.69,2.2c0.47-0.7,0.81-1.44,1.04-2.26c0.33-1.16-0.76-2.07-1.85-1.85
				c-0.4,0.08-0.81,0.17-1.21,0.25c0.56,0.73,1.13,1.47,1.69,2.2c0.37-0.59,0.74-1.18,1.1-1.78c0.57-0.92-0.16-2.35-1.3-2.26
				c-4.85,0.4-8.8,4.53-8.15,9.53c0.17,1.3,2.06,2.26,2.8,0.76c0.53-1.09,0.94-2.23,1.51-3.31c0.43-0.82,1.03-2.06,2.1-2.04
				c-0.13-0.98-0.27-1.96-0.4-2.95c-6.97,1.61-8.96,10.04-9.52,16.15c-0.1,1.07,1.38,1.97,2.26,1.3c1.94-1.47,3.31-3.35,4.44-5.49
				c1.09-2.07,1.98-4.31,3.42-6.18c1.15-1.48-0.68-3.49-2.12-2.12c-5.79,5.49-9.84,13.93-6.21,21.7c0.79-0.61,1.57-1.21,2.36-1.82
				c-0.72-0.88-1.57-1.88-1.92-2.98c-0.34-1.06,0.23-1.48,0.66-2.38c0.55-1.14,0.87-2.49,1.33-3.69c0.5-1.3,0.94-2.6,1.15-3.98
				c0.26-1.71-1.69-2.54-2.74-1.16c-1.66,2.19-3.71,5.63-3.11,8.49c0.32,1.52,1.77,2.9,3.39,2.21c1.44-0.62,2.05-2.32,2.66-3.64
				C188.3,39.96,185.72,38.43,184.9,40.18L184.9,40.18z"/>
		</g>
	</g>
</g>
<g id="Brazos">
	<path class="st22" d="M261.62,156.02c-0.14,0.54,1.16,0.77,1.77,2.14c0.63,1.41-0.26,2.28,0.48,3.48c0.5,0.82,1.5,1.37,1.93,1.13
		c0.58-0.34,0.03-2.14,0.27-2.2c0.16-0.04,0.41,0.82,1.02,1.82c0.48,0.79,1.57,2.29,2.14,2.09c0.49-0.17,0.44-1.52,0.43-1.71
		c-0.05-0.91-0.36-1.82-1.88-3.91c-1.45-2-2.19-3.01-3.21-3.32C263.29,155.14,261.77,155.46,261.62,156.02z"/>
	<path class="st22" d="M171.35,155.46c-0.16,1.1-1.84,0.93-2.49,2.33c-0.43,0.93,0.15,1.33-0.32,3.21c-0.2,0.79-0.37,1.45-0.88,1.61
		c-0.5,0.15-1.18-0.22-1.37-0.72c-0.25-0.65,0.36-1.42,0.32-1.45c-0.05-0.03-0.93,1.45-1.37,2.17c-1.08,1.78-1.34,2.02-1.69,2.09
		c-0.82,0.17-1.88-0.61-1.85-1.21c0.02-0.35,0.41-0.48,1.04-0.96c0.94-0.71,1.43-1.46,2.33-2.81c0.62-0.93,0.4-0.81,1.29-2.25
		c0.94-1.52,1.44-2.08,1.77-2.41c0.81-0.81,1.42-1.43,2.09-1.29C170.88,153.91,171.46,154.75,171.35,155.46z"/>
	<path class="st23" d="M194.98,118.25c-0.05,1.31-1.11,2.43-3.21,4.66c-2.44,2.59-3.06,2.4-4.02,3.86
		c-1.76,2.66-0.58,4.65-1.45,7.71c-1,3.52-4.65,5.97-6.27,7.23c-1.77,1.39-3.36,2.25-3.21,3.38c0.13,1.05,1.61,0.98,2.41,2.41
		c1.02,1.83-0.06,4.33-0.96,6.43c-0.99,2.29-1.47,2.12-1.93,3.7c-0.95,3.28,0.62,5.82,0,6.11c-0.53,0.24-2.19-1.42-3.05-3.54
		c-0.98-2.4-0.36-4-1.29-4.5c-0.93-0.5-2.44,0.63-3.54,1.45c-2.67,1.99-2.89,3.69-5.46,4.98c-0.46,0.23-1.83,0.92-2.25,0.48
		c-0.41-0.42,0.24-1.7,1.45-3.7c2.3-3.83,3.49-5.8,6.27-9c2.54-2.93,3.01-2.95,4.18-4.82c0.87-1.39,1.21-2.32,2.57-6.27
		c3.6-10.41,3.95-11.73,5.63-12.86c0.71-0.47,1.87-1.07,2.41-2.41c0.54-1.36-0.19-1.9,0-3.7c0.26-2.45,1.93-4.21,3.22-5.57
		c0.94-0.99,1.42-1.49,2.08-1.67C191.16,111.94,195.1,115.29,194.98,118.25z"/>
	<path class="st23" d="M235.32,117.29c0.14,1.55,1.59,3.07,4.5,6.11c2.39,2.5,3.08,2.7,4.02,4.34c1.28,2.23,0.54,2.82,1.61,5.79
		c0.74,2.05,2.22,4.07,5.14,8.04c1.53,2.07,2.88,2.47,3.21,4.18c0.3,1.51-0.42,1.79-0.48,4.1c-0.01,0.57-0.04,3.24,1.37,5.95
		c0.96,1.85,1.57,1.75,1.85,3.05c0.49,2.31-1.13,4.15-0.56,4.58c0.39,0.29,1.48-0.34,2.17-1.04c0.87-0.89,0.84-1.6,1.93-4.02
		c0.83-1.85,1.11-2.02,1.29-2.09c1.5-0.63,3.92,1.89,4.26,2.25c1.82,1.93,1.86,3.46,3.7,4.26c0.31,0.14,1.26,0.54,1.69,0.16
		c0.59-0.52-0.06-2.23-1.13-4.42c-2.06-4.22-3.43-7.03-6.67-10.45c-3.38-3.56-4.54-3.3-6.03-6.03c-1.44-2.64-1.1-4.25-1.85-7.15
		c-1.45-5.61-4.49-5.12-6.31-10.25c-1.42-4-0.12-5.04-1.97-8.96c-0.96-2.04-2.45-5.21-5.04-5.52
		C238.75,109.75,235.02,113.98,235.32,117.29z"/>
</g>
<g id="Tronco">
	<path class="st24" d="M200.39,86.75l4.66-2.57c0,0,0.75,3.69,3,6.43c2.5,3.04,6.93,3.13,8.2,3.16c1.1,0.02,6.39,0.13,8.2-2.95
		c1.37-2.33,0.96-5.63,0.96-5.63l5.63,2.73c0,0-3.64,7.83-7.99,9.81c-5.69,2.59-11.15,0.74-12.7,0.21
		c-1.39-0.47-5.78-2.14-8.57-6.38C200.84,90.14,200.39,86.75,200.39,86.75z"/>
	<path class="st25" d="M246.89,106.28l2.17,2.81c0,0-1.77,3.21-7.96,6.83c-6.19,3.62-7.71,4.42-7.71,4.42l-2.41-3.54
		c0,0,3.78-2.01,9.04-5.46C245.28,107.88,246.89,106.28,246.89,106.28z"/>
	<path class="st25" d="M196.05,154.25l-0.48,4.23c0,0,4.29,2.84,16.82,3.05c12.54,0.21,20.57-2.14,20.57-2.14l-1.13-4.93
		c0,0-5.3,1.88-17.57,1.82C202,156.23,196.05,154.25,196.05,154.25z"/>
	<path class="st26" d="M195.72,154.24c0,0,0.63-2.1,1.62-4.2c0.96-2.03,0.99-4.02,1.71-7.89c3.41-18.5-2.1-34.9-1.93-34.93
		c0.1-0.02,1.22,4.78,1.88,8.62c0.02,0.13,0.17,1.03,0.17,1.03s-5.82-1.83-9.57-4.56c-6.43-4.68-7.01-5.57-6.99-6.35
		c0.04-1.43,1.31-1.91,4.13-4.53c3.75-3.49,3.56-4.59,7.61-8.89c4.11-4.38,5.84-6.87,7.07-6.43c0.62,0.22,0.67,0.86,1.5,2.46
		c0,0,1.46,2.81,3.64,4.93c2.88,2.8,6.9,3.07,9,3.21c1.43,0.1,4.64,0.27,8.14-1.39c1.64-0.78,4.73-2.25,5.57-5.14
		c0.48-1.66-0.07-2.74,0.43-3c0.87-0.45,2.78,2.64,7.29,7.61c3.25,3.58,5.75,7.96,9.64,10.82c0.07,0.05,0.26,0.19,0.33,0.43
		c0.26,0.96-1.98,2.13-4.94,4.12c-1.32,0.89-3.64,2.51-8.62,5.69c-0.75,0.48-2.12,1.34-2.63,0.91c-0.27-0.23-0.2-0.76-0.11-1.18
		c0.67-3.03,4.23-9.06,4.56-8.84c0.26,0.18-3.2,3.47-4.38,9.7c-0.27,1.44-0.23,2.03-0.25,7.69c-0.04,9.8-0.16,8.55-0.08,11.73
		c0.16,6.36,0.24,9.53,0.72,12.21c0.65,3.62,1.25,4.58,0.56,5.79c-0.78,1.36-2.59,2-13.02,1.85c-14.45-0.2-11.89,0.02-17.44-0.6
		C199.19,154.85,195.72,154.24,195.72,154.24z"/>
	<polygon class="st27" points="206.93,113.43 210.84,116.21 213.89,112.95 211.85,127.57 218.6,126.98 219.3,104.16 215.39,104.16 	
		"/>
	<path class="st25" d="M182.36,106.12c0,0,3.05,3.54,7.79,6.43c4.74,2.89,9.08,4.34,9.08,4.34v4.58c0,0-5.22-1.45-11.17-5.95
		c-5.95-4.5-8.12-6.67-8.12-6.67L182.36,106.12z"/>
</g>
<g id="Pantalon">
	<path class="st28" d="M196.91,159.71c0,0,9.07,0.89,16.71,1.77c4.15,0.48,10.06,0.43,17.52-2.09c0,0,0.64-0.48,1.61,11.89
		c1.39,17.81,3.15,26.61,1.93,30.7c-0.47,1.57-1.61,4.48-0.32,7.07c0.59,1.18,1.49,1.92,1.93,3.86c0.35,1.56,0.19,2.98,0.16,3.21
		c-0.16,1.29-0.43,1.22-0.48,2.17c-0.08,1.34,0.4,2.44,1.13,4.1c0.67,1.52,1,1.81,0.88,2.49c-0.16,0.94-0.91,1.07-1.37,2.01
		c-0.55,1.13,0.01,2,0.4,4.02c0.48,2.5-0.13,2.53,0.24,6.15c0.22,2.11,0.4,1.84,0.68,4.18c0.56,4.55-0.22,4.81,0.6,6.43
		c0.11,0.23,1.84,3.56,4.14,4.22c0.24,0.07,0.88,0.22,1.04,0.68c0.16,0.45-0.17,1.07-0.6,1.41c-0.93,0.72-2.12-0.12-3.94-0.16
		c-1.42-0.04-2.05,0.44-3.94,1.13c-4.43,1.6-4.86,0.39-7.71,1.69c-3.59,1.64-4.43,4.25-6.27,3.78c-1.12-0.29-1.74-1.5-2.17-2.33
		c-0.97-1.89-0.72-3.76-0.56-4.82c0.36-2.42,1.24-2.86,1.85-5.14c0.51-1.92,0.34-3.27,0.16-5.63c-0.65-8.41,0.26-7.74-0.48-12.7
		c-0.8-5.31-1.2-7.97-1.93-9.48c-0.42-0.86-1.39-2.67-0.8-4.5c0.3-0.94,0.77-1.14,1.13-2.09c0.71-1.9-0.16-3.83-0.48-4.66
		c-0.45-1.15-0.12-0.88-0.64-10.61c-0.03-0.51-0.44-7.68-2.09-15.91c-0.27-1.36-0.67-3.19-1.29-3.21c-0.84-0.03-1.61,3.28-1.97,4.86
		c-1.43,6.31-1.26,11.04-1.41,15.71c-0.17,5.46-0.76,7.36-0.96,11.25c-0.08,1.56-0.1,2.69,0.48,3.91c0.49,1.04,1.13,1.55,1.66,3.11
		c0.15,0.44,0.38,1.12,0.43,1.93c0.1,1.83-0.85,2.99-1.45,4.29c-0.2,0.43-0.55,1.29-0.64,5.95c-0.11,5.4-0.16,8.1,0.27,9.7
		c1.48,5.46,5.42,8.26,4.13,10.77c-0.3,0.57-1.01,1.4-0.8,2.46c0.2,1.05,1.09,1.24,1.13,1.93c0.07,1.25-2.68,3.02-5.57,3.11
		c-1.01,0.03-1.77-0.15-6.8-2.41c-4.86-2.18-4.81-2.31-5.84-2.52c-3.94-0.78-6.12,0.83-7.13-0.43c-0.7-0.88-0.2-2.37,0.64-4.88
		c0.85-2.54,1.54-3.22,2.2-4.88c0.65-1.62,0.48-2.21,0.7-8.3c0.26-7.36,0.51-7.03,0.29-9.19c-0.48-4.85-0.8-6.75-0.8-6.75
		c-0.25-1.46-0.6-3.26,0.24-5.14c0.34-0.76,0.75-0.82,1.04-1.61c0.52-1.41-0.06-2.4-0.24-4.26c-0.13-1.33,0.05-1.95,0.24-3.7
		c0.36-3.38,0.05-4.69,0.08-9.4c0.01-1.84,0.14-4.06,0.4-8.52c0.23-3.88,0.22-2.82,0.8-11.25c0.28-4,0.32-4.81,0.56-6.43
		c0.32-2.1,0.59-3,0.88-5.54C196.84,160.2,196.91,159.71,196.91,159.71z"/>
	<path class="st29" d="M226.69,207.18c-1.97,1.95-2.17,4.47-2.25,5.46c-0.24,3.02,0.99,5.23,1.71,6.54c1.01,1.82,2.46,4.43,4.5,4.39
		c1.77-0.03,3.02-2.05,3.32-2.57c0.65-1.13,0.93-2.47-0.21-9c-1-5.73-1.53-6.45-2.25-6.75C229.54,204.42,226.88,207,226.69,207.18z"
		/>
	<path class="st29" d="M199.91,203.43c1.53,0.11,2.63,2.43,4.82,7.07c1.17,2.48,1.76,3.74,1.71,5.04c-0.12,3.69-3.61,8-7.29,7.61
		c-2.91-0.31-4.55-3.42-4.71-3.75c-0.26-0.51-1.06-2.24-0.54-5.68C194.58,209.31,197.24,203.23,199.91,203.43z"/>
</g>
<g id="Zapaatos">
	<path class="st30" d="M179.23,269.05c2.61,1.2,10.45,1.79,17.36,0.8c1.49-0.54,1.81-2.31,3.86-3.21c0.67-0.3,1.74-0.67,6.75-0.86
		c4.03-0.15,5.46,0,6.05-0.96c0.28-0.46,0.1-0.72-0.11-2.84c-0.33-3.29-0.08-4.38-0.7-4.66c-0.64-0.29-1.2,0.77-2.79,1.18
		c-0.99,0.26-1.97,0.15-3.75-0.43c-3.13-1.02-3.94-1.95-7.45-3.54c-3.37-1.53-4.83-1.67-5.46-1.71c-0.38-0.02-1.95-0.1-3.91,0.43
		c-3.57,0.97-5.75,3.24-6.38,3.91C180.4,259.63,177.68,264.71,179.23,269.05z"/>
	<path class="st30" d="M220.69,264.45c0.52,0.84,1.64,0.62,4.93,0.96c2.97,0.31,5.2,0.56,7.23,1.61c2.13,1.1,1.55,1.29,3.86,3.43
		c2.3,2.14,14.14,1.13,17.57,0.16c1.82-3.27-0.05-9.67-3.32-12.96c-0.54-0.54-4-3.93-8.57-3.8c-2.23,0.06-2.32,0.9-6.64,1.88
		c-3.69,0.84-4.1,0.34-7.45,1.23c-4.68,1.25-6.01,2.8-6.38,3.27C221.11,261.25,219.97,263.28,220.69,264.45z"/>
	<path class="st31" d="M203.02,263.86l5.63-0.96c0,0-0.16-4.1-2.01-4.74c-1.85-0.64-5.14-1.13-5.14-1.13s0.96,1.85,1.04,3.42
		C202.61,262.01,203.02,263.86,203.02,263.86z"/>
	<path class="st31" d="M208.64,258.71c0,0,0.8,1.45,1.04,2.33c0.24,0.88,0.4,2.17,0.4,2.17l3.05-0.88c0,0-0.16-1.13-0.48-2.25
		s-0.88-2.41-0.88-2.41L208.64,258.71z"/>
	<path class="st31" d="M220.93,262.09l3.62,1.45c0,0,0.08-1.61,0.72-3.09c0.64-1.49,2.09-2.77,2.09-2.77s-2.97,0.8-4.34,1.61
		c-1.37,0.8-2.09,1.33-2.09,1.33V262.09z"/>
	<path class="st31" d="M226.32,263.86c0,0,1.61-0.24,2.41,0c0.8,0.24,2.25,1.21,2.25,1.21s-0.24-2.09,0.72-4.62
		c0.96-2.53,2.09-3.42,2.09-3.42s-0.86-0.7-2.3-0.43s-2.89,0.96-2.89,0.96s-0.72,0.7-1.23,2.44S226.32,263.86,226.32,263.86z"/>
</g>
<g id="Capa_10">
	<path class="st32" d="M195.57,171.38c0,0,1.56,1.21,3.29-0.72c1.73-1.93,2.39-6.35,2.39-6.35l10.21,0.96l15.15-0.96
		c0,0-0.04,2.81,1.61,4.42s2.64,2.33,3.29,2.33s1.44,0,1.44,0"/>
	<path class="st32" d="M213.73,179.39c0,0-3.29-2.27-3.5-5.6c-0.21-3.33,0-7.71,0-7.71l-0.09-1.1"/>
	<polyline class="st32" points="213.73,172.05 213.73,166.23 213.73,164.78 	"/>
</g>
</svg>
